<svg xmlns="http://www.w3.org/2000/svg" version="1.1" xmlns:xlink="http://www.w3.org/1999/xlink" xmlns:svgjs="http://svgjs.dev/svgjs" width="2000" height="318" viewBox="0 0 2000 318"><g transform="matrix(1,0,0,1,-1.2121212121212466,0.7657247840564878)"><svg viewBox="0 0 396 63" data-background-color="#ffffff" preserveAspectRatio="xMidYMid meet" height="318" width="2000" xmlns="http://www.w3.org/2000/svg" xmlns:xlink="http://www.w3.org/1999/xlink"><g id="tight-bounds" transform="matrix(1,0,0,1,0.2400000000000091,-0.15170019306779636)"><svg viewBox="0 0 395.52 63.30340038613561" height="63.30340038613561" width="395.52"><g><svg viewBox="0 0 481.92708611777255 77.13294723259762" height="63.30340038613561" width="395.52"><g transform="matrix(1,0,0,1,86.40708611777256,18.92477582342954)"><svg viewBox="0 0 395.52 39.28339558573854" height="39.28339558573854" width="395.52"><g id="textblocktransform"><svg viewBox="0 0 395.52 39.28339558573854" height="39.28339558573854" width="395.52" id="textblock"><g><svg viewBox="0 0 395.52 39.28339558573854" height="39.28339558573854" width="395.52"><g transform="matrix(1,0,0,1,0,0)"><svg width="395.52" viewBox="1.76 -40.6 546.38 54.27" height="39.28339558573854" data-palette-color="#ed2647"><path d="M1.76-36.82L13.72-36.82 13.72-34.74 10.06-34.18 10.06-2.93 23.44-2.93 24.88-8.4 26.88-8.4 26.66 0 1.76 0 1.76-2.08 5.47-2.64 5.47-34.18 1.76-34.74 1.76-36.82ZM37.5-24.73L37.5-2.59 40.62-2.03 40.62 0 30.37 0 30.37-2.03 33.54-2.59 33.54-20.36 30.37-20.92 30.37-22.95 37.5-24.73ZM33.41-32.19Q33.01-32.62 32.76-33.15 32.52-33.69 32.52-34.22 32.52-34.74 32.76-35.27 33.01-35.79 33.4-36.23L33.4-36.23Q34.3-37.21 35.04-37.21 35.79-37.21 36.31-36.94 36.84-36.67 37.25-36.23L37.25-36.23Q38.16-35.23 38.16-34.46 38.16-33.69 37.9-33.15 37.64-32.62 37.25-32.18L37.25-32.18Q36.33-31.23 35.56-31.23 34.79-31.23 34.3-31.49 33.81-31.76 33.41-32.19ZM67.45-20.58L64.28-20.58Q65.42-18.73 65.42-15.97L65.42-15.97Q65.42-12.08 61.52-9.08L61.52-9.08Q59.81-7.76 57.51-6.88L57.51-6.88 53.78-5.47Q51.09-4.47 50.74-4.09 50.39-3.71 50.39-3.48 50.39-3.25 50.63-3.03 50.87-2.81 51.44-2.61L51.44-2.61Q52.78-2.15 55.2-2.15 57.61-2.15 59.71-1.89 61.81-1.64 63.42-0.93L63.42-0.93Q66.94 0.66 66.94 4.49L66.94 4.49Q66.94 7.08 64.91 9.3L64.91 9.3Q62.1 12.35 56.95 13.38L56.95 13.38Q55.41 13.67 53.56 13.67 51.7 13.67 49.78 13.28 47.85 12.89 46.41 12.06L46.41 12.06Q43.35 10.33 43.35 6.86L43.35 6.86Q43.35 4.17 45.62 2.73L45.62 2.73 47.21 1.78Q47.87 1.44 48.69 1.27 49.51 1.1 50.34 0.88L50.34 0.88Q47.7 0.37 46.7-1.22L46.7-1.22Q46.36-1.78 46.36-2.4 46.36-3.03 46.6-3.47 46.85-3.91 47.48-4.35 48.12-4.79 49.24-5.32L49.24-5.32 52.14-6.69Q49.85-7.13 47.85-8.81L47.85-8.81Q45.09-11.13 45.09-15.36L45.09-15.36Q45.09-19.41 48.65-22.22L48.65-22.22Q51.8-24.73 55.59-24.73 59.37-24.73 62.13-22.95L62.13-22.95Q63.89-24.17 67.94-24.68L67.94-24.68 68.6-23.93 67.45-20.58ZM47.77 5.46Q47.63 6.13 47.63 7.15 47.63 8.18 48.38 9.05 49.14 9.91 50.31 10.38L50.31 10.38Q52.22 11.13 54.62 11.13 57.03 11.13 58.3 10.74 59.57 10.35 60.52 9.62L60.52 9.62Q62.67 8.01 62.67 5.42L62.67 5.42Q62.67 2.17 58.08 1.76L58.08 1.76Q56.73 1.64 55.27 1.64L55.27 1.64Q51.07 1.64 48.6 4.1L48.6 4.1Q47.92 4.79 47.77 5.46ZM49.63-18.95L49.63-18.95Q49.12-17.75 49.12-16.03 49.12-14.31 49.63-13.04 50.14-11.77 51.02-10.89L51.02-10.89Q52.8-9.11 55.61-9.11L55.61-9.11Q59.27-9.11 60.83-12.18L60.83-12.18Q61.42-13.33 61.42-15.03 61.42-16.72 60.91-18.04 60.4-19.36 59.52-20.29L59.52-20.29Q57.69-22.22 54.93-22.22L54.93-22.22Q51.02-22.22 49.63-18.95ZM87.3-21.56L87.3-21.56Q83.61-21.56 79.68-18.97L79.68-18.97 79.68-2.59 82.78-2.03 82.78 0 72.53 0 72.53-2.03 75.7-2.59 75.7-36.21 72.53-36.82 72.53-38.79 79.68-40.6 79.68-21.56Q82.12-23.24 84.48-23.99 86.83-24.73 88.49-24.73 90.15-24.73 91.47-24.27 92.79-23.8 93.72-22.85L93.72-22.85Q95.67-20.87 95.67-17.19L95.67-17.19 95.67-2.59 98.77-2.03 98.77 0 88.54 0 88.54-2.03 91.69-2.59 91.69-16.72Q91.69-21.56 87.3-21.56ZM108.24-21.29L108.24-7.47Q108.24-2.59 112.2-2.59L112.2-2.59Q114.27-2.59 116.23-4.3L116.23-4.3 117.54-2.69Q115.47-0.98 113.71-0.21 111.95 0.56 110.61 0.56 109.27 0.56 108.01-0.02 106.75-0.61 105.92-1.71L105.92-1.71Q104.29-3.83 104.29-7.74L104.29-7.74 104.29-21.29 101.19-21.29 101.19-23.41 104.29-24.15 104.29-27.42 107.17-30.3 108.24-30.3 108.24-24.15 116.3-24.15 116.3-21.29 108.24-21.29ZM157.87 0L143.39-30.71Q143.39-30.71 142.37-2.64L142.37-2.64 145.76-2.08 145.76 0 135.63 0 135.63-2.08 139.1-2.64 140.85-34.18 137.41-34.74 137.41-36.82 145.76-36.82 158.87-8.23 172.08-36.82 179.72-36.82 179.72-34.74 176.06-34.18Q176.45-26.22 176.89-18.33 177.33-10.45 177.69-2.64L177.69-2.64 181.45-2.08 181.45 0 169.52 0 169.52-2.08 173.18-2.64 172.08-30.35 157.87 0ZM208.04-3.56L208.48-1.27Q204.91 0.56 203.33 0.56L203.33 0.56Q199.76 0.56 199.76-2.47L199.76-2.47 199.76-3.22Q199.42-2.71 197.9-1.73 196.37-0.76 195.51-0.37L195.51-0.37Q193.49 0.56 192.44 0.56 191.39 0.56 190.71 0.48 190.02 0.39 189.29 0.15 188.56-0.1 187.85-0.54 187.14-0.98 186.58-1.68L186.58-1.68Q185.33-3.25 185.33-5.76L185.33-5.76Q185.33-9.23 187.8-10.6L187.8-10.6Q189.36-11.5 191.11-11.72 192.85-11.94 194.29-12.06L194.29-12.06Q197.03-12.3 199.76-12.35L199.76-12.35 199.76-17.48Q199.76-19.6 199.23-20.31L199.23-20.31Q198.32-21.56 196.42-21.56L196.42-21.56Q192.17-21.56 188.07-18.8L188.07-18.8 186.65-20.92Q192.37-24.73 196.88-24.73L196.88-24.73Q200.81-24.73 202.45-22.56L202.45-22.56Q203.72-20.87 203.72-17.77L203.72-17.77 203.72-4.93Q203.72-3.13 204.4-2.88L204.4-2.88Q204.65-2.81 205.04-2.81L205.04-2.81Q206.01-2.81 208.04-3.56L208.04-3.56ZM199.76-5.47L199.76-10.3Q192.83-10.03 190.88-8.91L190.88-8.91Q189.39-8.06 189.39-6.15L189.39-6.15Q189.39-3.39 191.51-2.76L191.51-2.76Q192.1-2.59 192.94-2.59 193.78-2.59 194.9-2.93 196.03-3.27 196.98-3.76L196.98-3.76Q198.79-4.64 199.76-5.47L199.76-5.47ZM216.8-21.29L216.8-7.47Q216.8-2.59 220.76-2.59L220.76-2.59Q222.83-2.59 224.78-4.3L224.78-4.3 226.1-2.69Q224.03-0.98 222.27-0.21 220.51 0.56 219.17 0.56 217.83 0.56 216.57-0.02 215.31-0.61 214.48-1.71L214.48-1.71Q212.85-3.83 212.85-7.74L212.85-7.74 212.85-21.29 209.75-21.29 209.75-23.41 212.85-24.15 212.85-27.42 215.73-30.3 216.8-30.3 216.8-24.15 224.86-24.15 224.86-21.29 216.8-21.29ZM241.75-21.56L241.75-21.56Q238.06-21.56 234.13-18.97L234.13-18.97 234.13-2.59 237.23-2.03 237.23 0 226.98 0 226.98-2.03 230.15-2.59 230.15-36.21 226.98-36.82 226.98-38.79 234.13-40.6 234.13-21.56Q236.57-23.24 238.93-23.99 241.29-24.73 242.95-24.73 244.61-24.73 245.92-24.27 247.24-23.8 248.17-22.85L248.17-22.85Q250.12-20.87 250.12-17.19L250.12-17.19 250.12-2.59 253.22-2.03 253.22 0 243 0 243-2.03 246.14-2.59 246.14-16.72Q246.14-21.56 241.75-21.56ZM276.05-5.59L276.05-5.59 277.44-4Q273.56-0.51 269.92 0.37L269.92 0.37Q269.12 0.56 268.33 0.56L268.33 0.56Q262.96 0.56 259.59-2.83L259.59-2.83Q256.25-6.15 256.25-11.5L256.25-11.5Q256.25-16.82 259.4-20.61L259.4-20.61Q262.87-24.73 268.41-24.73L268.41-24.73Q272.24-24.73 274.88-21.97L274.88-21.97Q277.68-19.09 277.68-14.48L277.68-14.48 276.54-13.45 260.62-12.3Q260.67-7.86 263.5-5.2L263.5-5.2Q266.04-2.86 269.41-2.86 272.78-2.86 276.05-5.59ZM260.79-14.6L260.79-14.6 273.34-15.75Q273.17-19.8 270.21-21.31L270.21-21.31Q269.16-21.85 267.53-21.85 265.89-21.85 264.61-21.04 263.33-20.24 262.5-19.09L262.5-19.09Q260.91-16.92 260.79-14.6ZM296.82-21.56L296.82-21.56Q292.55-21.56 288.89-18.97L288.89-18.97 288.89-2.59 291.99-2.03 291.99 0 281.78 0 281.78-2.03 284.93-2.59 284.93-20.36 281.78-20.92 281.78-22.95 288.89-24.73 288.89-21.56Q293.48-24.73 297.53-24.73L297.53-24.73Q302.61-24.73 304.12-21.51L304.12-21.51Q306.61-23.24 308.98-23.99 311.35-24.73 313.01-24.73L313.01-24.73Q316.72-24.73 318.54-22.88 320.36-21.02 320.36-17.19L320.36-17.19 320.36-2.59 323.43-2.03 323.43 0 313.28 0 313.28-2.03 316.38-2.59 316.38-17.19Q316.38-19.38 315.08-20.56L315.08-20.56Q313.99-21.56 312.35-21.56L312.35-21.56Q308.15-21.56 304.66-19.04L304.66-19.04Q304.78-17.82 304.78-17.19L304.78-17.19 304.78-2.59 307.59-2.03 307.59 0 297.92 0 297.92-2.03 300.78-2.59 300.78-17.19Q300.78-19.38 299.56-20.56L299.56-20.56Q298.51-21.56 296.82-21.56ZM349.82-3.56L350.26-1.27Q346.7 0.56 345.11 0.56L345.11 0.56Q341.55 0.56 341.55-2.47L341.55-2.47 341.55-3.22Q341.21-2.71 339.68-1.73 338.15-0.76 337.3-0.37L337.3-0.37Q335.27 0.56 334.22 0.56 333.17 0.56 332.49 0.48 331.81 0.39 331.07 0.15 330.34-0.1 329.63-0.54 328.93-0.98 328.36-1.68L328.36-1.68Q327.12-3.25 327.12-5.76L327.12-5.76Q327.12-9.23 329.58-10.6L329.58-10.6Q331.15-11.5 332.89-11.72 334.64-11.94 336.08-12.06L336.08-12.06Q338.81-12.3 341.55-12.35L341.55-12.35 341.55-17.48Q341.55-19.6 341.01-20.31L341.01-20.31Q340.11-21.56 338.2-21.56L338.2-21.56Q333.95-21.56 329.85-18.8L329.85-18.8 328.44-20.92Q334.15-24.73 338.67-24.73L338.67-24.73Q342.6-24.73 344.23-22.56L344.23-22.56Q345.5-20.87 345.5-17.77L345.5-17.77 345.5-4.93Q345.5-3.13 346.19-2.88L346.19-2.88Q346.43-2.81 346.82-2.81L346.82-2.81Q347.8-2.81 349.82-3.56L349.82-3.56ZM341.55-5.47L341.55-10.3Q334.61-10.03 332.66-8.91L332.66-8.91Q331.17-8.06 331.17-6.15L331.17-6.15Q331.17-3.39 333.3-2.76L333.3-2.76Q333.88-2.59 334.72-2.59 335.57-2.59 336.69-2.93 337.81-3.27 338.76-3.76L338.76-3.76Q340.57-4.64 341.55-5.47L341.55-5.47ZM358.59-21.29L358.59-7.47Q358.59-2.59 362.54-2.59L362.54-2.59Q364.62-2.59 366.57-4.3L366.57-4.3 367.89-2.69Q365.81-0.98 364.05-0.21 362.3 0.56 360.95 0.56 359.61 0.56 358.35-0.02 357.1-0.61 356.27-1.71L356.27-1.71Q354.63-3.83 354.63-7.74L354.63-7.74 354.63-21.29 351.53-21.29 351.53-23.41 354.63-24.15 354.63-27.42 357.51-30.3 358.59-30.3 358.59-24.15 366.64-24.15 366.64-21.29 358.59-21.29ZM375.45-24.73L375.45-2.59 378.58-2.03 378.58 0 368.32 0 368.32-2.03 371.5-2.59 371.5-20.36 368.32-20.92 368.32-22.95 375.45-24.73ZM371.36-32.19Q370.96-32.62 370.72-33.15 370.47-33.69 370.47-34.22 370.47-34.74 370.72-35.27 370.96-35.79 371.35-36.23L371.35-36.23Q372.26-37.21 373-37.21 373.74-37.21 374.27-36.94 374.79-36.67 375.21-36.23L375.21-36.23Q376.11-35.23 376.11-34.46 376.11-33.69 375.86-33.15 375.6-32.62 375.21-32.18L375.21-32.18Q374.28-31.23 373.51-31.23 372.74-31.23 372.26-31.49 371.77-31.76 371.36-32.19ZM401.4-5.59L401.4-5.59 402.79-4Q398.91-0.51 395.28 0.37L395.28 0.37Q394.47 0.56 393.69 0.56L393.69 0.56Q388.34 0.56 385.05-2.83L385.05-2.83Q381.85-6.13 381.85-11.5L381.85-11.5Q381.85-16.87 385.05-20.61L385.05-20.61Q388.61-24.73 394.62-24.73L394.62-24.73Q398.62-24.73 401.7-23.41L401.7-23.41 401.11-18.51 399.57-18.51Q399.57-20.97 396.62-21.63L396.62-21.63Q395.69-21.85 394.03-21.85 392.37-21.85 390.77-21.08 389.17-20.31 388.15-19.04L388.15-19.04Q386.12-16.53 386.12-12.89L386.12-12.89Q386.12-8.42 388.32-5.74L388.32-5.74Q390.69-2.86 394.41-2.86 398.13-2.86 401.4-5.59ZM407.48-7.13L408.75-7.13Q408.75-2.03 415-2.03L415-2.03Q417.37-2.03 418.78-3.08L418.78-3.08Q420.08-4.03 420.08-5.47L420.08-5.47Q420.08-6.98 419.32-7.81L419.32-7.81Q417.83-9.45 415.01-10.42 412.19-11.4 410.79-12.29 409.38-13.18 408.58-14.16L408.58-14.16Q407.19-15.82 407.19-17.74 407.19-19.65 407.91-20.87 408.63-22.09 409.8-22.95L409.8-22.95Q412.29-24.73 415.56-24.73L415.56-24.73Q419.49-24.73 422.42-23L422.42-23 421.86-18.29 420.54-18.29Q420.54-22.12 415.44-22.12L415.44-22.12Q413.22-22.12 412.07-21.25 410.92-20.39 410.92-19.09L410.92-19.09Q410.92-16.24 417.29-13.92L417.29-13.92Q423.25-11.72 424.01-8.18L424.01-8.18Q424.2-7.18 424.2-5.8 424.2-4.42 423.31-3.13 422.42-1.83 421.08-1.03L421.08-1.03Q418.47 0.56 415.05 0.56L415.05 0.56Q411.7 0.56 408.8-0.73L408.8-0.73Q407.5-1.29 406.55-2.03L406.55-2.03 407.48-7.13ZM464.07-37.38L464.07-37.38Q469.02-37.38 473.15-36.13L473.15-36.13Q474.96-35.57 476.18-34.89L476.18-34.89 475.61-28.37 474-28.37Q474-31.08 471.34-32.71L471.34-32.71Q468.51-34.45 463.55-34.45L463.55-34.45Q457.13-34.45 452.93-30.13L452.93-30.13Q448.76-25.78 448.76-19.26L448.76-19.26Q448.76-12.35 452.62-7.54L452.62-7.54Q455.23-4.3 459.23-3.03L459.23-3.03Q461.28-2.37 463.9-2.37 466.51-2.37 468.53-2.67 470.56-2.98 471.85-3.66L471.85-3.66Q474.39-5 474.39-8.2L474.39-8.2 476-8.2 476.35-1.9Q472.1 0.56 463.82 0.56L463.82 0.56Q454.69 0.56 449.25-4.74L449.25-4.74Q444.05-9.79 444.05-17.77L444.05-17.77Q444.05-26.61 450.2-32.18L450.2-32.18Q455.89-37.38 464.07-37.38ZM487.87-40.6L487.87-2.59 490.99-2.03 490.99 0 480.74 0 480.74-2.03 483.91-2.59 483.91-36.21 480.74-36.82 480.74-38.79 487.87-40.6ZM519.24-3.32L519.75-1.03Q517.09 0.56 515.5 0.56L515.5 0.56Q513.99 0.56 513.26-0.05L513.26-0.05Q511.94-1.07 511.94-2.47L511.94-2.47 511.94-2.81Q509.84-1.03 507.59-0.23 505.35 0.56 503.66 0.56L503.66 0.56Q500.24 0.56 498.3-1.31 496.36-3.17 496.36-6.96L496.36-6.96 496.36-20.36 493.46-20.85 493.46-23 500.32-24.73 500.32-6.96Q500.32-4.76 501.83-3.56L501.83-3.56Q503.08-2.59 504.76-2.59L504.76-2.59Q507.52-2.59 509.94-4.05L509.94-4.05Q511.03-4.69 511.94-5.54L511.94-5.54 511.94-20.36 508.25-20.85 508.25-22.88 515.89-24.73 515.89-4.13Q515.89-2.81 517.21-2.81L517.21-2.81Q518.14-2.81 519.24-3.32L519.24-3.32ZM525.48-3.17L525.48-36.21 522.31-36.82 522.31-38.79 529.46-40.6 529.46-21.56Q531.86-23.24 534.07-23.99 536.28-24.73 538.27-24.73 540.26-24.73 542.16-23.82 544.06-22.9 545.38-21.29L545.38-21.29Q548.14-17.92 548.14-12.67L548.14-12.67Q548.14-7.23 544.89-3.52L544.89-3.52Q541.38 0.56 535.37 0.56L535.37 0.56Q531.51 0.56 528.12-1.29L528.12-1.29Q526.61-2.1 525.48-3.17L525.48-3.17ZM536.52-21.56L536.52-21.56Q533.22-21.56 529.46-19.04L529.46-19.04 529.46-5.1Q531.56-2.29 536.13-2.29L536.13-2.29Q539.64-2.29 541.84-4.98L541.84-4.98Q543.89-7.47 543.89-11.21L543.89-11.21Q543.89-18.09 539.86-20.65L539.86-20.65Q538.47-21.56 536.52-21.56Z" opacity="1" transform="matrix(1,0,0,1,0,0)" fill="#ed2647" class="undefined-text-0" data-fill-palette-color="primary" id="text-0"></path></svg></g></svg></g></svg></g></svg></g><g><svg viewBox="0 0 77.13321922147375 77.13294723259762" height="77.13294723259762" width="77.13321922147375"><g><svg xmlns="http://www.w3.org/2000/svg" xmlns:xlink="http://www.w3.org/1999/xlink" version="1.1" x="0" y="0" viewBox="7.734947788353146 7.7352458618416104 84.53054425048146 84.53024617699299" enable-background="new 0 0 100 100" xml:space="preserve" height="77.13294723259762" width="77.13321922147375" class="icon-icon-0" data-fill-palette-color="accent" id="icon-0"><g fill="#ca3433" data-fill-palette-color="accent"><g fill="#ca3433" data-fill-palette-color="accent"><g fill="#ca3433" data-fill-palette-color="accent"><path d="M28.368 14.767C42.162 16.327 48.04 25.762 49.69 30.695c1.07 3.198 1.472 5.094 1.472 9.275 0 0.817 0.044 2.076-1.054 2.216-0.77 0.099-1.209-0.509-1.273-1.182-0.289-3.026-1.159-6.569-4.008-9.85-2.253-2.594-7.472-7.802-16.652-7.021-2.669 0.228-5.052-1.868-5.129-4.564C22.964 16.703 25.531 14.446 28.368 14.767z" fill="#ca3433" data-fill-palette-color="accent"></path><path d="M71.633 85.232c-13.794-1.561-19.671-10.995-21.322-15.929-1.07-3.198-1.472-5.094-1.472-9.275 0-0.817-0.044-2.076 1.054-2.216 0.77-0.099 1.209 0.509 1.273 1.182 0.289 3.026 1.159 6.569 4.008 9.85 2.253 2.594 7.472 7.802 16.652 7.021 2.669-0.228 5.052 1.868 5.129 4.564C77.037 83.296 74.47 85.553 71.633 85.232z" fill="#ca3433" data-fill-palette-color="accent"></path></g><g fill="#ca3433" data-fill-palette-color="accent"><path d="M14.768 71.633c1.56-13.794 10.995-19.672 15.928-21.322 3.198-1.07 5.094-1.472 9.276-1.472 0.817 0 2.076-0.045 2.216 1.054 0.098 0.77-0.509 1.209-1.182 1.273-3.026 0.288-6.569 1.159-9.849 4.008-2.594 2.254-7.802 7.473-7.021 16.652 0.228 2.669-1.868 5.052-4.564 5.129C16.704 77.036 14.447 74.47 14.768 71.633z" fill="#ca3433" data-fill-palette-color="accent"></path><path d="M85.233 28.367c-1.56 13.794-10.995 19.672-15.928 21.322-3.198 1.07-5.094 1.472-9.276 1.472-0.817 0-2.076 0.045-2.216-1.054-0.098-0.77 0.509-1.209 1.182-1.273 3.026-0.288 6.569-1.159 9.849-4.008 2.594-2.254 7.802-7.473 7.021-16.652-0.228-2.669 1.868-5.052 4.564-5.129C83.297 22.964 85.554 25.53 85.233 28.367z" fill="#ca3433" data-fill-palette-color="accent"></path></g></g><g fill="#ca3433" data-fill-palette-color="accent"><g fill="#ca3433" data-fill-palette-color="accent"><path d="M13.65 30.304c12.726-5.546 22.533-0.314 26.43 3.133 2.526 2.234 3.821 3.676 5.912 7.297 0.409 0.708 1.077 1.775 0.195 2.446-0.617 0.47-1.302 0.164-1.693-0.387-1.763-2.477-4.289-5.109-8.396-6.525-3.249-1.12-10.373-3.021-17.931 2.246-2.198 1.531-5.309 0.907-6.724-1.389C9.938 34.682 11.033 31.444 13.65 30.304z" fill="#ca3433" data-fill-palette-color="accent"></path><path d="M86.351 69.695c-12.726 5.546-22.533 0.314-26.43-3.133-2.526-2.234-3.821-3.676-5.912-7.297-0.409-0.708-1.077-1.775-0.196-2.446 0.618-0.47 1.302-0.164 1.694 0.387 1.763 2.477 4.289 5.109 8.396 6.525 3.249 1.12 10.373 3.021 17.931-2.245 2.198-1.532 5.309-0.908 6.724 1.388C90.063 65.317 88.968 68.555 86.351 69.695z" fill="#ca3433" data-fill-palette-color="accent"></path></g><g fill="#ca3433" data-fill-palette-color="accent"><path d="M30.304 86.351c-5.546-12.726-0.314-22.533 3.133-26.43 2.235-2.525 3.676-3.821 7.298-5.912 0.708-0.409 1.775-1.076 2.445-0.195 0.47 0.617 0.164 1.302-0.387 1.693-2.477 1.764-5.109 4.289-6.525 8.396-1.12 3.248-3.021 10.372 2.246 17.931 1.531 2.198 0.908 5.31-1.389 6.725C34.683 90.062 31.445 88.968 30.304 86.351z" fill="#ca3433" data-fill-palette-color="accent"></path><path d="M69.696 13.649c5.546 12.726 0.314 22.533-3.133 26.43-2.234 2.526-3.675 3.821-7.297 5.913-0.708 0.408-1.775 1.076-2.446 0.195-0.47-0.618-0.163-1.303 0.388-1.694 2.477-1.763 5.109-4.288 6.525-8.396 1.12-3.249 3.021-10.372-2.246-17.932-1.532-2.198-0.908-5.309 1.388-6.724C65.318 9.938 68.556 11.032 69.696 13.649z" fill="#ca3433" data-fill-palette-color="accent"></path></g></g><g fill="#ca3433" data-fill-palette-color="accent"><g fill="#ca3433" data-fill-palette-color="accent"><path d="M8.671 51.118c8.248-11.166 19.357-11.539 24.456-10.502 3.305 0.672 5.147 1.272 8.769 3.363 0.708 0.408 1.82 0.999 1.392 2.021-0.299 0.716-1.045 0.793-1.66 0.512-2.765-1.263-6.269-2.28-10.533-1.453-3.374 0.654-10.494 2.57-14.406 10.911-1.138 2.425-4.144 3.44-6.518 2.159C7.646 56.766 6.976 53.414 8.671 51.118z" fill="#ca3433" data-fill-palette-color="accent"></path><path d="M91.329 48.882C83.081 60.047 71.971 60.42 66.874 59.383c-3.305-0.672-5.147-1.272-8.769-3.363-0.708-0.408-1.82-0.999-1.393-2.021 0.3-0.716 1.046-0.793 1.66-0.512 2.766 1.264 6.269 2.28 10.534 1.453 3.373-0.654 10.493-2.569 14.406-10.91 1.138-2.426 4.144-3.441 6.517-2.16C92.354 43.233 93.025 46.585 91.329 48.882z" fill="#ca3433" data-fill-palette-color="accent"></path></g><g fill="#ca3433" data-fill-palette-color="accent"><path d="M51.119 91.329C39.953 83.081 39.58 71.972 40.617 66.874c0.673-3.305 1.272-5.147 3.364-8.77 0.409-0.708 1-1.819 2.02-1.392 0.716 0.3 0.793 1.045 0.512 1.66-1.263 2.765-2.28 6.269-1.453 10.533 0.654 3.374 2.57 10.493 10.911 14.406 2.425 1.138 3.44 4.144 2.159 6.518C56.766 92.354 53.415 93.025 51.119 91.329z" fill="#ca3433" data-fill-palette-color="accent"></path><path d="M48.882 8.672c11.166 8.247 11.538 19.356 10.501 24.455-0.672 3.305-1.271 5.147-3.362 8.77-0.409 0.707-1 1.819-2.021 1.392-0.716-0.3-0.792-1.046-0.511-1.661 1.263-2.765 2.28-6.268 1.453-10.533-0.655-3.373-2.57-10.492-10.911-14.406-2.426-1.137-3.44-4.144-2.159-6.517C43.234 7.646 46.585 6.976 48.882 8.672z" fill="#ca3433" data-fill-palette-color="accent"></path></g></g></g></svg></g></svg></g></svg></g><defs></defs></svg><rect width="395.52" height="63.30340038613561" fill="none" stroke="none" visibility="hidden"></rect></g></svg></g></svg>